# xmcd
#
# Track frame offsets:
#	150
#	29597
#	56742
#	82364
#	102447
#	134916
#	155992
#	158210
#	180516
#	204181
#	219645
#	246621
#
# Disc length: 3544 seconds
#
# Revision: 0
# Processed by: cddbd v1.4PL0 Copyright (c) Steve Scherf et al.
# Submitted via: dBpowerAMP V4.0
#
DISCID=bf0dd60c
DTITLE=Joe Zook and Blues Deluxe - Still Payin Dues
DYEAR=1900
DGENRE=Blues
TTITLE0=Payin Dues
TTITLE1=Jersey Blues
TTITLE2=Old Maid
TTITLE3=GM Jam
TTITLE4=Cherry Red
TTITLE5=Danger Zone
TTITLE6=Suffer
TTITLE7=Stuck On
TTITLE8=Stupid
TTITLE9=Comin Home
TTITLE10=How Long
TTITLE11=Acoustic Guitar
EXTD=
EXTT0=
EXTT1=
EXTT2=
EXTT3=
EXTT4=
EXTT5=
EXTT6=
EXTT7=
EXTT8=
EXTT9=
EXTT10=
EXTT11=
PLAYORDER=
